<?xml version="1.0" encoding="UTF-8" standalone="no"?>
<svg
   xmlns:dc="http://purl.org/dc/elements/1.1/"
   xmlns:cc="http://creativecommons.org/ns#"
   xmlns:rdf="http://www.w3.org/1999/02/22-rdf-syntax-ns#"
   xmlns:svg="http://www.w3.org/2000/svg"
   xmlns="http://www.w3.org/2000/svg"
   xmlns:sodipodi="http://sodipodi.sourceforge.net/DTD/sodipodi-0.dtd"
   xmlns:inkscape="http://www.inkscape.org/namespaces/inkscape"
   width="73.22673mm"
   height="54.267212mm"
   viewBox="0 0 73.22673 54.267212"
   version="1.1"
   id="svg2879"
   inkscape:version="1.0 (4035a4fb49, 2020-05-01)"
   sodipodi:docname="grandparents.svg">
  <defs
     id="defs2873">
    <inkscape:path-effect
       lpeversion="1"
       is_visible="true"
       id="path-effect1463"
       effect="spiro" />
    <inkscape:path-effect
       effect="spiro"
       id="path-effect3579"
       is_visible="true"
       lpeversion="1" />
    <inkscape:path-effect
       effect="spiro"
       id="path-effect3526"
       is_visible="true"
       lpeversion="1" />
  </defs>
  <sodipodi:namedview
     inkscape:snap-global="false"
     id="base"
     pagecolor="#ffffff"
     bordercolor="#666666"
     borderopacity="1.0"
     inkscape:pageopacity="0.0"
     inkscape:pageshadow="2"
     inkscape:zoom="2"
     inkscape:cx="161.78682"
     inkscape:cy="114.59432"
     inkscape:document-units="mm"
     inkscape:current-layer="layer1"
     inkscape:document-rotation="0"
     showgrid="false"
     inkscape:window-width="1608"
     inkscape:window-height="1001"
     inkscape:window-x="273"
     inkscape:window-y="0"
     inkscape:window-maximized="0"
     fit-margin-top="2"
     fit-margin-left="2"
     fit-margin-right="2"
     fit-margin-bottom="2" />
  <metadata
     id="metadata2876">
    <rdf:RDF>
      <cc:Work
         rdf:about="">
        <dc:format>image/svg+xml</dc:format>
        <dc:type
           rdf:resource="http://purl.org/dc/dcmitype/StillImage" />
        <dc:title />
      </cc:Work>
    </rdf:RDF>
  </metadata>
  <g
     inkscape:label="Layer 1"
     inkscape:groupmode="layer"
     id="layer1"
     transform="translate(-44.154007,6.9994953)">
    <path
       transform="matrix(0.26458333,0,0,0.26458333,44.154007,-6.9994953)"
       d="M 176.09375 54.171875 C 173.98843 54.162426 164.18144 55.733117 159.70898 59.304688 C 145.83512 70.383954 132.93555 105.35156 132.93555 105.35156 C 130.20088 108.86623 130.84886 113.93572 134.38086 116.65039 C 137.50486 119.05039 141.9113 118.82891 144.7793 116.12891 C 144.7793 116.12891 154.32714 94.543669 161 84.894531 C 164.82298 79.36639 174.46289 69.882812 174.46289 69.882812 L 159.51367 137.26172 L 176.18164 137.25977 L 174.50391 189.36328 C 174.36391 193.82328 177.92796 197.52224 182.39062 197.54492 L 182.39453 197.54492 C 186.49453 197.5676 189.9347 194.46086 190.33203 190.38086 L 194.66211 142.53906 L 198.99414 190.38086 C 199.39147 194.46086 202.83164 197.5676 206.93164 197.54492 L 206.93555 197.54492 C 211.39821 197.52224 214.96211 193.82328 214.82227 189.36328 L 213.14453 137.25977 L 229.8125 137.26172 L 214.86328 69.882812 C 214.86328 69.882812 224.50318 79.36639 228.32617 84.894531 C 234.999 94.543669 244.54688 116.12891 244.54688 116.12891 C 247.41489 118.82891 251.82131 119.05039 254.94531 116.65039 C 258.47728 113.93572 259.12526 108.86623 256.39062 105.35156 C 256.39062 105.35156 243.49104 70.383954 229.61719 59.304688 C 225.14472 55.733117 215.33773 54.162426 213.23242 54.171875 L 194.66211 54.253906 L 176.09375 54.171875 z "
       style="fill:#000000;fill-opacity:1;fill-rule:nonzero;stroke:none;stroke-width:0.133333"
       id="use3510" />
    <g
       id="g3575"
       transform="translate(-0.78201281,4.2333335)">
      <ellipse
         style="fill:#000000;stroke:#ffffff;stroke-width:0.3;stroke-linecap:round;stroke-miterlimit:4;stroke-dasharray:none"
         id="path3535-6"
         cx="96.439278"
         cy="-6.8338704"
         rx="3.3072917"
         ry="2.2489583" />
      <path
         id="path883-37-5"
         style="fill:#131112;fill-opacity:1;fill-rule:nonzero;stroke:#ffffff;stroke-width:0.3;stroke-miterlimit:4;stroke-dasharray:none"
         d="m 102.63981,-1.0881173 c 0.0131,3.4237081 -2.751662,6.2095951 -6.175371,6.2230001 -3.423708,0.01305 -6.209945,-2.751667 -6.223,-6.1753751 -0.01341,-3.4237092 2.751667,-6.2099482 6.175375,-6.2230012 3.423709,-0.01341 6.209596,2.751667 6.222996,6.1753762" />
    </g>
    <path
       sodipodi:nodetypes="ccsc"
       d="M 115.15991,44.516145 V 27.086719 c -1e-5,-2.393774 -1.80649,-4.200258 -4.0349,-4.200261 -2.22841,-2e-6 -4.0349,1.806483 -4.0349,4.034896"
       style="fill:none;stroke:#000000;stroke-width:1.5;stroke-linecap:round;stroke-miterlimit:4;stroke-dasharray:none"
       id="path3581-2" />
    <path
       transform="matrix(0.26458333,0,0,0.26458333,44.154007,-6.9994953)"
       d="M 63.53125 54.171875 C 61.425928 54.162426 51.618935 55.733117 47.146484 59.304688 C 33.272621 70.383952 20.373047 105.35156 20.373047 105.35156 C 17.638377 108.86622 18.286361 113.93571 21.818359 116.65039 C 24.942362 119.05039 29.346851 118.82891 32.214844 116.12891 C 32.214844 116.12891 41.764638 94.543669 48.4375 84.894531 C 52.260481 79.36639 61.898438 69.882812 61.898438 69.882812 C 64.846749 90.150797 65.583984 115.52344 65.583984 115.52344 L 61.941406 189.36328 C 61.801405 193.82327 65.365455 197.52224 69.828125 197.54492 L 69.832031 197.54492 C 73.932033 197.5676 77.372205 194.46086 77.769531 190.38086 L 81.90625 131.46875 L 86.429688 190.38086 C 86.827014 194.46086 90.267186 197.5676 94.367188 197.54492 L 94.371094 197.54492 C 98.833763 197.52224 102.39781 193.82327 102.25781 189.36328 L 98.615234 115.52344 C 98.615234 115.52344 99.35247 90.150797 102.30078 69.882812 C 102.30078 69.882812 111.93874 79.36639 115.76172 84.894531 C 122.43458 94.543669 131.98437 116.12891 131.98438 116.12891 C 134.85237 118.82891 139.25686 119.05039 142.38086 116.65039 C 145.91286 113.93571 146.56084 108.86622 143.82617 105.35156 C 143.82617 105.35156 130.9266 70.383952 117.05273 59.304688 C 112.58028 55.733117 102.77329 54.162426 100.66797 54.171875 L 81.90625 54.253906 L 63.53125 54.171875 z "
       style="fill:#000000;fill-opacity:1;fill-rule:nonzero;stroke:none;stroke-width:0.133333"
       id="use1469" />
    <path
       id="path883-37-5-5"
       style="fill:#131112;fill-opacity:1;fill-rule:nonzero;stroke:#ffffff;stroke-width:0.3;stroke-miterlimit:4;stroke-dasharray:none"
       d="m 59.67697,3.1452163 c -0.0131,3.4237081 2.751662,6.2095951 6.175371,6.2230001 3.423708,0.01305 6.209945,-2.751667 6.223,-6.1753751 0.01341,-3.4237092 -2.751667,-6.2099482 -6.175375,-6.2230012 -3.423709,-0.01341 -6.209596,2.751667 -6.222996,6.1753762" />
    <path
       id="path3581-2-8"
       style="fill:none;stroke:#000000;stroke-width:1.5;stroke-linecap:round;stroke-miterlimit:4;stroke-dasharray:none"
       d="M 46.37484,44.516146 V 27.086719 c 8e-6,-2.393773 1.80649,-4.200258 4.034898,-4.20026 2.228411,-3e-6 4.034901,1.806482 4.034901,4.034895"
       sodipodi:nodetypes="ccsc" />
    <g
       id="g3731"
       transform="translate(0.1588921,0.396875)">
      <text
         xml:space="preserve"
         style="font-style:normal;font-variant:normal;font-weight:normal;font-stretch:normal;font-size:32px;line-height:125%;font-family:Consolas;-inkscape-font-specification:Consolas;font-variant-ligatures:normal;font-variant-position:normal;font-variant-caps:normal;font-variant-numeric:normal;font-variant-alternates:normal;font-variant-east-asian:normal;font-feature-settings:normal;text-indent:0;text-align:start;text-decoration:none;text-decoration-line:none;text-decoration-style:solid;text-decoration-color:#000000;letter-spacing:0px;word-spacing:0px;text-transform:none;writing-mode:tb-rl;direction:ltr;text-orientation:mixed;dominant-baseline:auto;baseline-shift:baseline;text-anchor:start;white-space:normal;shape-padding:0;shape-margin:0;inline-size:0;vector-effect:none;fill:#ffffff;fill-opacity:1;stroke:none;stroke-width:0.999999px;stroke-linecap:butt;stroke-linejoin:miter;stroke-miterlimit:4;stroke-dasharray:none;stroke-dashoffset:0;stroke-opacity:1;stop-color:#000000"
         x="64"
         y="270.5"
         id="text3639-3"
         transform="matrix(0.33598895,0,0,-0.22952467,44.93894,68.990865)"><tspan
           sodipodi:role="line"
           id="tspan3637-9"
           x="270.5"
           y="64">,</tspan></text>
      <text
         transform="matrix(-0.33598895,0,0,-0.22952467,86.495589,68.990865)"
         id="text3639-3-6"
         y="270.5"
         x="64"
         style="font-style:normal;font-variant:normal;font-weight:normal;font-stretch:normal;font-size:32px;line-height:125%;font-family:Consolas;-inkscape-font-specification:Consolas;font-variant-ligatures:normal;font-variant-position:normal;font-variant-caps:normal;font-variant-numeric:normal;font-variant-alternates:normal;font-variant-east-asian:normal;font-feature-settings:normal;text-indent:0;text-align:start;text-decoration:none;text-decoration-line:none;text-decoration-style:solid;text-decoration-color:#000000;letter-spacing:0px;word-spacing:0px;text-transform:none;writing-mode:tb-rl;direction:ltr;text-orientation:mixed;dominant-baseline:auto;baseline-shift:baseline;text-anchor:start;white-space:normal;shape-padding:0;shape-margin:0;inline-size:0;vector-effect:none;fill:#ffffff;fill-opacity:1;stroke:none;stroke-width:0.999999px;stroke-linecap:butt;stroke-linejoin:miter;stroke-miterlimit:4;stroke-dasharray:none;stroke-dashoffset:0;stroke-opacity:1;stop-color:#000000"
         xml:space="preserve"><tspan
           y="64"
           x="270.5"
           id="tspan3637-9-3"
           sodipodi:role="line">,</tspan></text>
    </g>
  </g>
</svg>
