<?xml version="1.0" encoding="UTF-8" standalone="no"?>
<svg
   xmlns:dc="http://purl.org/dc/elements/1.1/"
   xmlns:cc="http://creativecommons.org/ns#"
   xmlns:rdf="http://www.w3.org/1999/02/22-rdf-syntax-ns#"
   xmlns:svg="http://www.w3.org/2000/svg"
   xmlns="http://www.w3.org/2000/svg"
   xmlns:sodipodi="http://sodipodi.sourceforge.net/DTD/sodipodi-0.dtd"
   xmlns:inkscape="http://www.inkscape.org/namespaces/inkscape"
   sodipodi:docname="parents.svg"
   inkscape:version="1.0 (4035a4fb49, 2020-05-01)"
   id="svg1634"
   version="1.1"
   viewBox="0 0 79.075226 52.627075"
   height="52.627075mm"
   width="79.075226mm">
  <defs
     id="defs1628" />
  <sodipodi:namedview
     inkscape:window-maximized="1"
     inkscape:window-y="-8"
     inkscape:window-x="-8"
     inkscape:window-height="1017"
     inkscape:window-width="1920"
     fit-margin-bottom="0"
     fit-margin-right="0"
     fit-margin-left="0"
     fit-margin-top="0"
     showgrid="false"
     inkscape:document-rotation="0"
     inkscape:current-layer="layer1"
     inkscape:document-units="mm"
     inkscape:cy="225.16703"
     inkscape:cx="29.433504"
     inkscape:zoom="0.35"
     inkscape:pageshadow="2"
     inkscape:pageopacity="0.0"
     borderopacity="1.0"
     bordercolor="#666666"
     pagecolor="#ffffff"
     id="base" />
  <metadata
     id="metadata1631">
    <rdf:RDF>
      <cc:Work
         rdf:about="">
        <dc:format>image/svg+xml</dc:format>
        <dc:type
           rdf:resource="http://purl.org/dc/dcmitype/StillImage" />
        <dc:title></dc:title>
      </cc:Work>
    </rdf:RDF>
  </metadata>
  <g
     transform="translate(-98.045719,-88.591223)"
     id="layer1"
     inkscape:groupmode="layer"
     inkscape:label="Layer 1">
    <g
       transform="matrix(0.35277777,0,0,-0.35277777,95.724576,161.20105)"
       id="g1604">
      <path
         d="m 200.501,188.124 c 0.037,-9.705 -7.8,-17.602 -17.505,-17.64 -9.705,-0.037 -17.603,7.8 -17.64,17.505 -0.037,9.705 7.8,17.603 17.505,17.64 9.705,0.038 17.603,-7.8 17.64,-17.505"
         style="fill:#131112;fill-opacity:1;fill-rule:nonzero;stroke:none;stroke-width:0.1"
         id="path931" />
      <path
         d="m 136.357,125.54 28.043,36.702 c 0.968,1.267 2.472,2.01 4.067,2.01 h 28.624 c 1.579,0 3.07,-0.728 4.039,-1.975 l 28.33,-36.41 c 2.052,-2.636 1.565,-6.438 -1.084,-8.474 v 0 c -2.343,-1.8 -5.646,-1.634 -7.797,0.391 l -20.013,23.059 8.96,-38.908 -12.499,0.001 1.258,-39.0782 c 0.105,-3.3449 -2.569,-6.1187 -5.915,-6.1359 h -0.005 c -3.075,-0.016 -5.655,2.314 -5.952,5.3742 l -3.384,35.8809 -3.27,-35.9391 c -0.285,-3.0449 -2.833,-5.3777 -5.892,-5.3938 v 0 c -3.363,-0.0171 -6.072,2.7539 -5.978,6.1149 l 1.119,39.053 -12.457,-0.006 8.644,38.885 -19.889,-23.169 c -2.133,-2.036 -5.428,-2.227 -7.783,-0.452 l -0.005,0.004 c -2.669,2.011 -3.19,5.81 -1.161,8.466"
         style="fill:#131112;fill-opacity:1;fill-rule:nonzero;stroke:none;stroke-width:0.1"
         id="path933" />
      <path
         d="m 93.4734,123.316 -18.8898,38.451 c -0.8063,1.642 -2.477,2.681 -4.3059,2.679 l -39.9808,-0.037 c -1.8028,-0.002 -3.4524,-1.015 -4.2684,-2.623 L 7.29336,124.898 c -1.47344,-2.902 -0.60469,-6.445 2.04453,-8.335 v 0 c 3.26211,-2.328 7.82931,-1.224 9.66841,2.336 l 12.6542,24.503 2.6188,-24.97 -6.1438,-52.323 c -0.589,-5.018 3.3333,-9.425 8.3856,-9.4231 h 0.0187 c 4.2602,0.002 7.8508,3.1789 8.3715,7.4071 l 5.1586,41.87 4.9961,-41.8798 c 0.5063,-4.2441 4.1055,-7.4391 8.3793,-7.4391 v 0 c 5.0356,0 8.9508,4.3809 8.386,9.3848 l -5.8973,52.2671 2.7953,24.934 13.0949,-25.738 c 1.5926,-3.131 5.3809,-4.434 8.5625,-2.946 v 0 c 3.3024,1.544 4.6942,5.498 3.0867,8.77"
         style="fill:#131112;fill-opacity:1;fill-rule:nonzero;stroke:none;stroke-width:0.1"
         id="path951" />
      <path
         d="m 32.8465,188.318 c -0.0371,-9.705 7.8,-17.602 17.5051,-17.64 9.705,-0.037 17.6027,7.8 17.6398,17.505 0.0375,9.705 -7.8,17.603 -17.5051,17.64 -9.7047,0.038 -17.6023,-7.8 -17.6398,-17.505"
         style="fill:#131112;fill-opacity:1;fill-rule:nonzero;stroke:none;stroke-width:0.1"
         id="path953" />
      <path
         d="m 144.852,123.352 -21.792,-11.102 -9.317,-0.021 -9.317,0.021 -21.7916,11.102 0.966,-8.017 19.9436,-14.997 -6.2909,-24.265 7.0079,-0.023 0.417,-15.7422 c 0.053,-2.034 1.714,-3.6566 3.749,-3.6637 1.931,-0.0062 3.554,1.45 3.755,3.3707 l 1.561,15.8493 1.561,-15.8493 c 0.201,-1.9207 1.824,-3.3769 3.755,-3.3707 2.035,0.0071 3.696,1.6297 3.75,3.6637 l 0.416,15.7422 7.008,0.023 -6.29,24.265 20.909,16.792 v 6.222"
         style="fill:#131112;fill-opacity:1;fill-rule:nonzero;stroke:none;stroke-width:0.1"
         id="path955" />
      <path
         d="m 113.781,116.463 c 5.438,0.021 9.829,4.446 9.808,9.884 -0.02,5.438 -4.446,9.829 -9.884,9.808 -5.438,-0.02 -9.829,-4.446 -9.808,-9.884 0.021,-5.438 4.446,-9.829 9.884,-9.808"
         style="fill:#131112;fill-opacity:1;fill-rule:nonzero;stroke:none;stroke-width:0.1"
         id="path957" />
    </g>
  </g>
</svg>
