<?xml version="1.0" encoding="UTF-8" standalone="no"?>
<svg
   xmlns:dc="http://purl.org/dc/elements/1.1/"
   xmlns:cc="http://creativecommons.org/ns#"
   xmlns:rdf="http://www.w3.org/1999/02/22-rdf-syntax-ns#"
   xmlns:svg="http://www.w3.org/2000/svg"
   xmlns="http://www.w3.org/2000/svg"
   xmlns:sodipodi="http://sodipodi.sourceforge.net/DTD/sodipodi-0.dtd"
   xmlns:inkscape="http://www.inkscape.org/namespaces/inkscape"
   sodipodi:docname="sequoia_hexlogo.svg"
   inkscape:version="1.0.2-2 (e86c870879, 2021-01-15)"
   id="svg912"
   version="1.1"
   viewBox="0 0 91.722224 91.72222"
   height="260pt"
   width="260pt">
  <defs
     id="defs906">
    <inkscape:path-effect
       lpeversion="1"
       is_visible="true"
       id="path-effect2307"
       effect="spiro" />
    <inkscape:path-effect
       lpeversion="1"
       is_visible="true"
       id="path-effect1621"
       effect="spiro" />
    <inkscape:path-effect
       lpeversion="1"
       is_visible="true"
       id="path-effect1617"
       effect="spiro" />
    <inkscape:path-effect
       lpeversion="1"
       is_visible="true"
       id="path-effect1613"
       effect="spiro" />
    <inkscape:path-effect
       lpeversion="1"
       is_visible="true"
       id="path-effect1601"
       effect="spiro" />
    <inkscape:path-effect
       lpeversion="1"
       is_visible="true"
       id="path-effect1597"
       effect="spiro" />
    <inkscape:path-effect
       lpeversion="1"
       is_visible="true"
       id="path-effect1593"
       effect="spiro" />
    <inkscape:path-effect
       lpeversion="1"
       is_visible="true"
       id="path-effect1573"
       effect="spiro" />
    <inkscape:path-effect
       lpeversion="1"
       is_visible="true"
       id="path-effect1565"
       effect="spiro" />
    <inkscape:path-effect
       lpeversion="1"
       is_visible="true"
       id="path-effect1561"
       effect="spiro" />
    <inkscape:path-effect
       lpeversion="1"
       is_visible="true"
       id="path-effect1557"
       effect="spiro" />
    <inkscape:path-effect
       lpeversion="1"
       is_visible="true"
       id="path-effect1553"
       effect="spiro" />
    <inkscape:path-effect
       lpeversion="1"
       is_visible="true"
       id="path-effect1549"
       effect="spiro" />
    <inkscape:path-effect
       lpeversion="1"
       is_visible="true"
       id="path-effect1545"
       effect="spiro" />
    <inkscape:path-effect
       lpeversion="1"
       is_visible="true"
       id="path-effect1541"
       effect="spiro" />
    <inkscape:path-effect
       lpeversion="1"
       is_visible="true"
       id="path-effect1537"
       effect="spiro" />
    <inkscape:path-effect
       lpeversion="1"
       is_visible="true"
       id="path-effect1514"
       effect="spiro" />
    <inkscape:path-effect
       lpeversion="1"
       is_visible="true"
       id="path-effect1510"
       effect="spiro" />
    <inkscape:path-effect
       lpeversion="1"
       is_visible="true"
       id="path-effect1506"
       effect="spiro" />
  </defs>
  <sodipodi:namedview
     inkscape:snap-global="false"
     fit-margin-bottom="5"
     fit-margin-right="5"
     fit-margin-left="5"
     fit-margin-top="5"
     inkscape:window-maximized="1"
     inkscape:window-y="-8"
     inkscape:window-x="-8"
     inkscape:window-height="1017"
     inkscape:window-width="1920"
     showgrid="false"
     inkscape:document-rotation="0"
     inkscape:current-layer="layer1"
     inkscape:document-units="mm"
     inkscape:cy="131.23107"
     inkscape:cx="216.85401"
     inkscape:zoom="1"
     inkscape:pageshadow="2"
     inkscape:pageopacity="0.0"
     borderopacity="1.0"
     bordercolor="#666666"
     pagecolor="#ffffff"
     id="base"
     units="pt" />
  <metadata
     id="metadata909">
    <rdf:RDF>
      <cc:Work
         rdf:about="">
        <dc:format>image/svg+xml</dc:format>
        <dc:type
           rdf:resource="http://purl.org/dc/dcmitype/StillImage" />
        <dc:title></dc:title>
      </cc:Work>
    </rdf:RDF>
  </metadata>
  <g
     transform="translate(-115.56476,-106.90658)"
     id="layer1"
     inkscape:groupmode="layer"
     inkscape:label="Layer 1">
    <g
       id="g859"
       transform="translate(2.6758711,-2.9585052)">
      <path
         d="m 158.75,197.78196 -36.42136,-21.02788 0,-42.05576 36.42136,-21.02788 36.42136,21.02788 0,42.05576 z"
         inkscape:randomized="0"
         inkscape:rounded="0"
         inkscape:flatsided="true"
         sodipodi:arg2="2.0943951"
         sodipodi:arg1="1.5707963"
         sodipodi:r2="36.421356"
         sodipodi:r1="42.055759"
         sodipodi:cy="155.7262"
         sodipodi:cx="158.75"
         sodipodi:sides="6"
         id="path3364-3"
         style="fill:#28170b;fill-opacity:1;stroke:#784421;stroke-width:4.23333;stroke-linecap:round;stroke-linejoin:miter;stroke-miterlimit:4;stroke-dasharray:none;paint-order:stroke markers fill"
         sodipodi:type="star" />
      <path
         transform="matrix(0.26458333,0,0,0.26458333,120.56476,111.90658)"
         id="path1647"
         d="M 110.18984,304.47078 C 83.207763,288.87629 76.673944,284.70633 77.914586,283.87235 c 0.855551,-0.57512 4.337408,-2.62067 7.73746,-4.54567 3.400051,-1.925 9.523098,-6.61621 13.606771,-10.42491 24.018693,-22.40141 32.143713,-54.8188 21.709983,-86.61909 -8.5666,-26.10961 -32.321608,-47.42468 -59.448159,-53.34209 -18.103923,-3.94921 -33.240504,-2.52532 -52.2499998,4.91511 -1.5921359,0.62317 -1.75,-0.17442 -1.75,-8.84166 v -9.52663 l 4.7499998,-1.5567 c 8.69732,-2.85035 17.642243,-4.47614 28.5,-5.18005 5.9125,-0.3833 10.75,-0.90503 10.75,-1.15939 0,-0.25436 -2.701523,-4.04767 -6.003385,-8.429571 C 38.300826,89.584772 30.783096,74.705214 32.11585,72.6368 c 0.497635,-0.772322 3.669735,-2.957307 7.04911,-4.855524 l 6.144319,-3.451302 2.688415,6.71554 c 6.940829,17.33788 18.498455,31.844706 33.766359,42.382626 5.870591,4.05189 21.233057,11.89854 23.295407,11.89854 2.50836,0 5.44229,-15.93436 5.45363,-29.61901 0.0159,-19.22786 -6.66045,-42.138455 -16.228199,-55.688565 -1.090338,-1.544167 -1.820842,-2.920217 -1.623341,-3.057889 3.824946,-2.666276 13.23617,-7.519523 13.84814,-7.141306 1.82561,1.128292 6.53173,10.455097 9.57213,18.970486 4.20204,11.768863 5.6885,11.830283 6.7235,0.27781 0.80737,-9.011855 4.30514,-24.441651 7.00253,-30.890426 1.17971,-2.820413 3.0127,-4.48017 8.07303,-7.310065 5.6846,-3.1790117 6.84921,-3.5040878 8.84327,-2.468416 4.79358,2.489688 4.81117,2.645487 1.19429,10.582193 -11.57179,25.392628 -17.36116,51.684878 -17.36116,78.845188 0,20.53448 2.31809,35.50867 8.61847,55.6729 2.61266,8.36176 4.14912,11.80415 5.41652,12.13558 1.30442,0.34111 3.54831,-1.91966 8.54031,-8.60458 6.6846,-8.95152 18.39038,-21.16761 38.04529,-39.7039 14.49224,-13.66744 18.34935,-22.809962 18.33522,-43.460099 -0.007,-9.787421 -0.52596,-15.353116 -2.55509,-27.386877 l -0.56437,-3.346977 5.0635,2.755905 c 5.72041,3.113435 5.49872,2.239902 5.54327,21.84211 0.0134,5.885869 0.4168,9.040522 1.19015,9.306637 0.64345,0.221416 3.01282,-3.110412 5.26527,-7.404062 2.25244,-4.29365 4.91973,-8.874562 5.92729,-10.179804 1.76984,-2.292723 1.91973,-2.315645 4.42181,-0.676219 l 2.58987,1.696948 -3.34138,4.377453 c -5.00985,6.563255 -8.30504,14.282042 -11.5578,27.073429 -1.61128,6.336311 -4.28981,14.370626 -5.95229,17.854026 -1.66247,3.48341 -3.02268,6.80406 -3.02268,7.37922 0,1.47832 8.21266,2.52938 14.60709,1.86941 16.84498,-1.73855 29.7937,-16.11151 33.45468,-37.134383 0.62895,-3.611695 1.36541,-6.566717 1.63659,-6.566717 0.27118,0 1.79999,0.772023 3.39735,1.715608 2.03216,1.200426 2.90429,2.503699 2.90429,4.340037 0,5.104778 -4.05311,18.374878 -7.56207,24.758665 -1.95547,3.55753 -3.19146,6.7738 -2.74666,7.14728 0.4448,0.37348 4.18373,1.2267 8.30873,1.89603 4.125,0.66933 9.1875,1.72142 11.25,2.33796 l 3.75,1.121 v 7.84171 c 0,4.31294 -0.41269,7.84171 -0.91709,7.84171 -0.50441,0 -2.90809,-0.85344 -5.34153,-1.89653 -13.25588,-5.68214 -35.25387,-7.1267 -49.83477,-3.27255 -24.71401,6.53262 -45.44324,24.04421 -55.5712,46.94533 -4.87926,11.03288 -6.6035,21.33178 -6.06455,36.22375 0.70436,19.46246 4.98464,31.66411 16.36824,46.66035 7.57807,9.98301 21.16164,21.0322 29.97655,24.38362 1.46395,0.55659 2.48682,1.17188 2.27304,1.36731 -0.53444,0.48857 -63.90118,37.02373 -66.38869,38.27751 -1.67634,0.84494 -7.47476,-2.15611 -35.8308,-18.54469 z"
         style="fill:none;stroke:none;stroke-width:2.66667;stroke-linecap:round;stroke-linejoin:round;stroke-miterlimit:4;stroke-dasharray:none;paint-order:stroke markers fill" />
      <path
         sodipodi:nodetypes="ccssssscssscsscsscscssscscsssssaacssscsssssaaacssaasaasscsaaccaasscccsssacccsscssssscscsc"
         transform="matrix(0.26458333,0,0,0.26458333,120.56476,111.90658)"
         id="path1653"
         d="m 109.66849,304.43335 -34.352155,-19.85736 4.852153,-2.43715 c 20.726322,-10.41045 35.763162,-28.71292 42.156742,-51.31216 3.92061,-13.85804 3.8542,-30.42183 -0.17773,-44.33333 -6.33014,-21.84109 -21.37534,-40.1741 -41.293525,-50.31734 -8.979217,-4.57263 -17.052824,-7.09003 -27.5,-8.57467 -3.899744,-0.55419 -16.086954,-0.54799 -20.166667,0.0103 -7.800384,1.06736 -16.557243,3.49545 -22.877359,6.3434 -1.6742144,0.75443 -3.1367144,1.37169 -3.2500002,1.37169 -0.1132859,0 -0.2059743,-4.48368 -0.2059743,-9.96374 v -9.96374 l 3.4166665,-1.1984 c 10.749117,-3.77029 20.323589,-5.45684 33.083334,-5.82767 l 7.333333,-0.21312 0.104483,-0.90641 c 0.08209,-0.71211 -0.347853,-1.42667 -2.005603,-3.33333 C 45.751698,100.4302 43.944935,98.010497 40.863075,93.3093 36.544636,86.72172 30.197836,73.17011 31.044103,72.343894 31.449113,71.94848 45.219731,63.99138 45.484451,63.9998 c 0.111574,0.0035 0.952857,2.06237 1.869524,4.57516 7.935233,21.752257 24.248006,40.24268 44.93623,50.93492 5.447376,2.81536 12.054095,5.55672 13.048695,5.41437 0.82169,-0.1176 1.40763,-1.73517 2.63137,-7.26424 5.90349,-26.673156 0.83042,-54.817526 -13.986579,-77.5948 -0.98801,-1.518808 -1.79047,-2.868808 -1.78324,-3 0.0072,-0.131191 3.245724,-2.086243 7.196657,-4.344558 6.710622,-3.835729 7.213082,-4.066134 7.632702,-3.5 0.24705,0.333315 1.45135,2.371876 2.67621,4.530135 3.71014,6.53742 5.85669,11.739227 9.23448,22.378207 0.49643,1.5636 1.31498,2.193046 2.16347,1.663663 0.66853,-0.4171 1.56324,-11.082056 3.09154,-16.446947 1.57374,-5.524438 4.01258,-10.767808 6.21931,-16.071246 1.89284,-4.549069 3.51077,-7.82951 6.01879,-13.50059 l 0.83487,-0.88462 c 2.68685,-2.8469469 6.40414,-3.6418179 6.69249,-3.752468 0.42112,-0.1615989 4.79722,2.0590298 7.48658,3.799026 0.3245,0.209948 -0.0626,1.30949 -1.61351,4.583538 -22.67276,47.86221 -25.38302,97.78199 -7.90239,145.55282 1.59188,4.35026 1.71517,4.56887 2.46992,4.37945 0.43691,-0.10966 0.99925,-0.0294 1.24963,0.17843 0.36508,0.30299 0.98863,-0.377 3.14856,-3.43357 3.67143,-5.19554 9.97064,-13.03896 14.71385,-18.32087 4.25087,-4.73366 12.18551,-10.92479 17.34036,-17.23767 6.58587,-8.06538 13.04196,-16.54138 17.14918,-26.10981 2.84595,-6.630119 4.10726,-13.908391 4.92994,-21.07645 1.45537,-12.680655 1.8615,-27.223781 -0.0473,-38.291667 7.41691,3.285694 1.72206,1.311897 3.08358,1.285694 0.28427,-0.0055 8.375,5.21206 8.375,5.21206 0.60025,4.223924 0.26201,8.317422 0.23499,12.477107 -0.0179,2.755829 -0.0539,5.515537 -0.26307,8.263476 -0.43561,5.723131 0.18753,14.203199 -2.06323,17.094997 -1.60537,2.06259 3.83471,-7.368793 5.6926,-11.083333 1.74384,-3.486514 3.49828,-6.969634 5.11927,-10.51493 1.43792,-3.144904 3.15653,-8.76683 4.08389,-9.53647 0.42949,-0.356446 4.47319,2.836376 6.8496,4.187943 1.56029,0.8874 2.83918,1.688457 2.842,1.780123 0.003,0.09167 -0.84417,1.216667 -1.88217,2.5 -4.1715,5.157434 -6.77379,12.717022 -9.60223,19.333333 -2.51786,5.889797 -4.10787,12.143133 -6.53476,18.070987 -2.61319,6.3829 -6.9203,16.02877 -8.62919,18.80608 -1.90047,3.14824 -1.33811,2.16224 -1.33811,2.16224 4.12065,0.9456 14.89049,-3.79825 21.7474,-7.14586 7.47044,-3.64714 15.31191,-7.57232 20.71121,-13.89345 4.75173,-5.562998 8.46464,-13.47138 9.22721,-19.914603 0.20084,-1.696967 0.4662,-3.719207 0.58968,-4.493867 l 0.2245,-1.408476 3.79603,2.213263 3.79602,2.213263 -0.20504,2.88865 c -0.62385,8.788877 -3.68241,18.273927 -8.7462,27.12329 -2.77397,4.84771 -2.50104,3.70313 2.73207,5.45689 5.63754,1.88929 8.58063,3.14998 12.68962,5.13412 2.22066,1.0723 6.4375,3.6454 6.4375,3.6454 v 4.15999 8.49331 l -1.63947,-0.83078 c -6.34714,-3.21634 -15.68344,-5.93497 -24.86053,-7.23912 -3.89974,-0.55419 -16.08695,-0.54799 -20.16666,0.0103 -24.94525,3.41337 -45.99283,16.87966 -59.46904,38.04842 -4.1872,6.57736 -8.54242,17.17563 -10.34192,25.16667 -1.95419,8.67801 -2.50112,20.18455 -1.3626,28.66667 3.08821,23.00736 15.51183,43.50694 34.34022,56.66304 3.90842,2.73095 5.79744,3.84525 10.78534,6.36203 l 4.11866,2.0782 -3.11866,1.82471 c -12.62903,7.38916 -65.68231,37.90173 -65.87611,37.88736 -0.13341,-0.01 -15.70103,-8.9538 -34.59471,-19.87534 z"
         style="fill:#f4e3d7;stroke:#f4e3d7;stroke-width:0.888889;stroke-linecap:round;stroke-linejoin:round;stroke-miterlimit:4;stroke-dasharray:none;paint-order:stroke markers fill" />
      <text
         id="text2303"
         y="189.5706"
         x="145.1169"
         style="font-style:normal;font-variant:normal;font-weight:normal;font-stretch:normal;font-size:7.76111px;line-height:125%;font-family:'Palatino Linotype';-inkscape-font-specification:'Palatino Linotype';text-decoration:none;text-decoration-line:none;text-decoration-color:#000000;letter-spacing:0px;word-spacing:0px;fill:#28170b;stroke:none;stroke-width:0.264583px;stroke-linecap:butt;stroke-linejoin:miter;stroke-opacity:1;stop-color:#000000"
         xml:space="preserve"><tspan
           style="font-style:normal;font-variant:normal;font-weight:normal;font-stretch:normal;font-size:7.76111px;font-family:'Palatino Linotype';-inkscape-font-specification:'Palatino Linotype';fill:#28170b;stroke:none;stroke-width:0.264583px"
           y="189.5706"
           x="145.1169"
           id="tspan2301"
           sodipodi:role="line">Sequoia</tspan></text>
    </g>
  </g>
</svg>
